<svg width="575" height="575" viewBox="0 0 575 575" fill="none" xmlns="http://www.w3.org/2000/svg">
<rect x="0.5" y="0.5" width="41" height="41" stroke="black"/>
<rect x="41.5" y="0.5" width="41" height="41" stroke="black"/>
<rect x="82.5" y="0.5" width="41" height="41" stroke="black"/>
<rect x="123.5" y="0.5" width="41" height="41" stroke="black"/>
<rect x="164.5" y="0.5" width="41" height="41" stroke="black"/>
<rect x="205.5" y="0.5" width="41" height="41" stroke="black"/>
<rect x="246.5" y="0.5" width="41" height="41" stroke="black"/>
<rect x="287.5" y="0.5" width="41" height="41" stroke="black"/>
<rect x="328.5" y="0.5" width="41" height="41" stroke="black"/>
<rect x="369.5" y="0.5" width="41" height="41" stroke="black"/>
<rect x="410.5" y="0.5" width="41" height="41" stroke="black"/>
<rect x="451.5" y="0.5" width="41" height="41" stroke="black"/>
<rect x="492.5" y="0.5" width="41" height="41" stroke="black"/>
<rect x="533.5" y="0.5" width="41" height="41" stroke="black"/>
<rect x="0.5" y="41.5" width="41" height="41" stroke="black"/>
<rect x="41.5" y="41.5" width="41" height="41" stroke="black"/>
<rect x="82.5" y="41.5" width="41" height="41" stroke="black"/>
<rect x="123.5" y="41.5" width="41" height="41" stroke="black"/>
<rect x="164.5" y="41.5" width="41" height="41" stroke="black"/>
<rect x="205.5" y="41.5" width="41" height="41" stroke="black"/>
<rect x="246.5" y="41.5" width="41" height="41" stroke="black"/>
<rect x="287.5" y="41.5" width="41" height="41" stroke="black"/>
<rect x="328.5" y="41.5" width="41" height="41" stroke="black"/>
<rect x="369.5" y="41.5" width="41" height="41" stroke="black"/>
<rect x="410.5" y="41.5" width="41" height="41" stroke="black"/>
<rect x="451.5" y="41.5" width="41" height="41" stroke="black"/>
<rect x="492.5" y="41.5" width="41" height="41" stroke="black"/>
<rect x="533.5" y="41.5" width="41" height="41" stroke="black"/>
<rect x="0.5" y="82.5" width="41" height="41" stroke="black"/>
<rect x="41.5" y="82.5" width="41" height="41" stroke="black"/>
<rect x="82.5" y="82.5" width="41" height="41" stroke="black"/>
<rect x="123.5" y="82.5" width="41" height="41" stroke="black"/>
<rect x="164.5" y="82.5" width="41" height="41" stroke="black"/>
<rect x="205.5" y="82.5" width="41" height="41" stroke="black"/>
<rect x="246.5" y="82.5" width="41" height="41" stroke="black"/>
<rect x="287.5" y="82.5" width="41" height="41" stroke="black"/>
<rect x="328.5" y="82.5" width="41" height="41" stroke="black"/>
<rect x="369.5" y="82.5" width="41" height="41" stroke="black"/>
<rect x="410.5" y="82.5" width="41" height="41" stroke="black"/>
<rect x="451.5" y="82.5" width="41" height="41" stroke="black"/>
<rect x="492.5" y="82.5" width="41" height="41" stroke="black"/>
<rect x="533.5" y="82.5" width="41" height="41" stroke="black"/>
<rect x="0.5" y="123.5" width="41" height="41" stroke="black"/>
<rect x="41.5" y="123.5" width="41" height="41" stroke="black"/>
<rect x="82.5" y="123.5" width="41" height="41" stroke="black"/>
<rect x="123.5" y="123.5" width="41" height="41" stroke="black"/>
<rect x="164.5" y="123.5" width="41" height="41" stroke="black"/>
<rect x="205.5" y="123.5" width="41" height="41" stroke="black"/>
<rect x="246.5" y="123.5" width="41" height="41" stroke="black"/>
<rect x="287.5" y="123.5" width="41" height="41" stroke="black"/>
<rect x="328.5" y="123.5" width="41" height="41" stroke="black"/>
<rect x="369.5" y="123.5" width="41" height="41" stroke="black"/>
<rect x="410.5" y="123.5" width="41" height="41" stroke="black"/>
<rect x="451.5" y="123.5" width="41" height="41" stroke="black"/>
<rect x="492.5" y="123.5" width="41" height="41" stroke="black"/>
<rect x="533.5" y="123.5" width="41" height="41" stroke="black"/>
<rect x="0.5" y="164.5" width="41" height="41" stroke="black"/>
<rect x="41.5" y="164.5" width="41" height="41" stroke="black"/>
<rect x="82.5" y="164.5" width="41" height="41" stroke="black"/>
<rect x="123.5" y="164.5" width="41" height="41" stroke="black"/>
<rect x="164.5" y="164.5" width="41" height="41" stroke="black"/>
<rect x="205.5" y="164.5" width="41" height="41" stroke="black"/>
<rect x="246.5" y="164.5" width="41" height="41" stroke="black"/>
<rect x="287.5" y="164.5" width="41" height="41" stroke="black"/>
<rect x="328.5" y="164.5" width="41" height="41" stroke="black"/>
<rect x="369.5" y="164.5" width="41" height="41" stroke="black"/>
<rect x="410.5" y="164.5" width="41" height="41" stroke="black"/>
<rect x="451.5" y="164.5" width="41" height="41" stroke="black"/>
<rect x="492.5" y="164.5" width="41" height="41" stroke="black"/>
<rect x="533.5" y="164.5" width="41" height="41" stroke="black"/>
<rect x="0.5" y="205.5" width="41" height="41" stroke="black"/>
<rect x="41.5" y="205.5" width="41" height="41" stroke="black"/>
<rect x="82.5" y="205.5" width="41" height="41" stroke="black"/>
<rect x="123.5" y="205.5" width="41" height="41" stroke="black"/>
<rect x="164.5" y="205.5" width="41" height="41" stroke="black"/>
<rect x="205.5" y="205.5" width="41" height="41" stroke="black"/>
<rect x="246.5" y="205.5" width="41" height="41" stroke="black"/>
<rect x="287.5" y="205.5" width="41" height="41" stroke="black"/>
<rect x="328.5" y="205.5" width="41" height="41" stroke="black"/>
<rect x="369.5" y="205.5" width="41" height="41" stroke="black"/>
<rect x="410.5" y="205.5" width="41" height="41" stroke="black"/>
<rect x="451.5" y="205.5" width="41" height="41" stroke="black"/>
<rect x="492.5" y="205.5" width="41" height="41" stroke="black"/>
<rect x="533.5" y="205.5" width="41" height="41" stroke="black"/>
<rect x="0.5" y="246.5" width="41" height="41" stroke="black"/>
<rect x="41.5" y="246.5" width="41" height="41" stroke="black"/>
<rect x="82.5" y="246.5" width="41" height="41" stroke="black"/>
<rect x="123.5" y="246.5" width="41" height="41" stroke="black"/>
<rect x="164.5" y="246.5" width="41" height="41" stroke="black"/>
<rect x="205.5" y="246.5" width="41" height="41" stroke="black"/>
<rect x="246.5" y="246.5" width="41" height="41" stroke="black"/>
<rect x="287.5" y="246.5" width="41" height="41" stroke="black"/>
<rect x="328.5" y="246.5" width="41" height="41" stroke="black"/>
<rect x="369.5" y="246.5" width="41" height="41" stroke="black"/>
<rect x="410.5" y="246.5" width="41" height="41" stroke="black"/>
<rect x="451.5" y="246.5" width="41" height="41" stroke="black"/>
<rect x="492.5" y="246.5" width="41" height="41" stroke="black"/>
<rect x="533.5" y="246.5" width="41" height="41" stroke="black"/>
<rect x="0.5" y="287.5" width="41" height="41" stroke="black"/>
<rect x="41.5" y="287.5" width="41" height="41" stroke="black"/>
<rect x="82.5" y="287.5" width="41" height="41" stroke="black"/>
<rect x="123.5" y="287.5" width="41" height="41" stroke="black"/>
<rect x="164.5" y="287.5" width="41" height="41" stroke="black"/>
<rect x="205.5" y="287.5" width="41" height="41" stroke="black"/>
<rect x="246.5" y="287.5" width="41" height="41" stroke="black"/>
<rect x="287.5" y="287.5" width="41" height="41" stroke="black"/>
<rect x="328.5" y="287.5" width="41" height="41" stroke="black"/>
<rect x="369.5" y="287.5" width="41" height="41" stroke="black"/>
<rect x="410.5" y="287.5" width="41" height="41" stroke="black"/>
<rect x="451.5" y="287.5" width="41" height="41" stroke="black"/>
<rect x="492.5" y="287.5" width="41" height="41" stroke="black"/>
<rect x="533.5" y="287.5" width="41" height="41" stroke="black"/>
<rect x="0.5" y="328.5" width="41" height="41" stroke="black"/>
<rect x="41.5" y="328.5" width="41" height="41" stroke="black"/>
<rect x="82.5" y="328.5" width="41" height="41" stroke="black"/>
<rect x="123.5" y="328.5" width="41" height="41" stroke="black"/>
<rect x="164.5" y="328.5" width="41" height="41" stroke="black"/>
<rect x="205.5" y="328.5" width="41" height="41" stroke="black"/>
<rect x="246.5" y="328.5" width="41" height="41" stroke="black"/>
<rect x="287.5" y="328.5" width="41" height="41" stroke="black"/>
<rect x="328.5" y="328.5" width="41" height="41" stroke="black"/>
<rect x="369.5" y="328.5" width="41" height="41" stroke="black"/>
<rect x="410.5" y="328.5" width="41" height="41" stroke="black"/>
<rect x="451.5" y="328.5" width="41" height="41" stroke="black"/>
<rect x="492.5" y="328.5" width="41" height="41" stroke="black"/>
<rect x="533.5" y="328.5" width="41" height="41" stroke="black"/>
<rect x="0.5" y="369.5" width="41" height="41" stroke="black"/>
<rect x="41.5" y="369.5" width="41" height="41" stroke="black"/>
<rect x="82.5" y="369.5" width="41" height="41" stroke="black"/>
<rect x="123.5" y="369.5" width="41" height="41" stroke="black"/>
<rect x="164.5" y="369.5" width="41" height="41" stroke="black"/>
<rect x="205.5" y="369.5" width="41" height="41" stroke="black"/>
<rect x="246.5" y="369.5" width="41" height="41" stroke="black"/>
<rect x="287.5" y="369.5" width="41" height="41" stroke="black"/>
<rect x="328.5" y="369.5" width="41" height="41" stroke="black"/>
<rect x="369.5" y="369.5" width="41" height="41" stroke="black"/>
<rect x="410.5" y="369.5" width="41" height="41" stroke="black"/>
<rect x="451.5" y="369.5" width="41" height="41" stroke="black"/>
<rect x="492.5" y="369.5" width="41" height="41" stroke="black"/>
<rect x="533.5" y="369.5" width="41" height="41" stroke="black"/>
<rect x="0.5" y="410.5" width="41" height="41" stroke="black"/>
<rect x="41.5" y="410.5" width="41" height="41" stroke="black"/>
<rect x="82.5" y="410.5" width="41" height="41" stroke="black"/>
<rect x="123.5" y="410.5" width="41" height="41" stroke="black"/>
<rect x="164.5" y="410.5" width="41" height="41" stroke="black"/>
<rect x="205.5" y="410.5" width="41" height="41" stroke="black"/>
<rect x="246.5" y="410.5" width="41" height="41" stroke="black"/>
<rect x="287.5" y="410.5" width="41" height="41" stroke="black"/>
<rect x="328.5" y="410.5" width="41" height="41" stroke="black"/>
<rect x="369.5" y="410.5" width="41" height="41" stroke="black"/>
<rect x="410.5" y="410.5" width="41" height="41" stroke="black"/>
<rect x="451.5" y="410.5" width="41" height="41" stroke="black"/>
<rect x="492.5" y="410.5" width="41" height="41" stroke="black"/>
<rect x="533.5" y="410.5" width="41" height="41" stroke="black"/>
<rect x="0.5" y="451.5" width="41" height="41" stroke="black"/>
<rect x="41.5" y="451.5" width="41" height="41" stroke="black"/>
<rect x="82.5" y="451.5" width="41" height="41" stroke="black"/>
<rect x="123.5" y="451.5" width="41" height="41" stroke="black"/>
<rect x="164.5" y="451.5" width="41" height="41" stroke="black"/>
<rect x="205.5" y="451.5" width="41" height="41" stroke="black"/>
<rect x="246.5" y="451.5" width="41" height="41" stroke="black"/>
<rect x="287.5" y="451.5" width="41" height="41" stroke="black"/>
<rect x="328.5" y="451.5" width="41" height="41" stroke="black"/>
<rect x="369.5" y="451.5" width="41" height="41" stroke="black"/>
<rect x="410.5" y="451.5" width="41" height="41" stroke="black"/>
<rect x="451.5" y="451.5" width="41" height="41" stroke="black"/>
<rect x="492.5" y="451.5" width="41" height="41" stroke="black"/>
<rect x="533.5" y="451.5" width="41" height="41" stroke="black"/>
<rect x="0.5" y="492.5" width="41" height="41" stroke="black"/>
<rect x="41.5" y="492.5" width="41" height="41" stroke="black"/>
<rect x="82.5" y="492.5" width="41" height="41" stroke="black"/>
<rect x="123.5" y="492.5" width="41" height="41" stroke="black"/>
<rect x="164.5" y="492.5" width="41" height="41" stroke="black"/>
<rect x="205.5" y="492.5" width="41" height="41" stroke="black"/>
<rect x="246.5" y="492.5" width="41" height="41" stroke="black"/>
<rect x="287.5" y="492.5" width="41" height="41" stroke="black"/>
<rect x="328.5" y="492.5" width="41" height="41" stroke="black"/>
<rect x="369.5" y="492.5" width="41" height="41" stroke="black"/>
<rect x="410.5" y="492.5" width="41" height="41" stroke="black"/>
<rect x="451.5" y="492.5" width="41" height="41" stroke="black"/>
<rect x="492.5" y="492.5" width="41" height="41" stroke="black"/>
<rect x="533.5" y="492.5" width="41" height="41" stroke="black"/>
<rect x="0.5" y="533.5" width="41" height="41" stroke="black"/>
<rect x="41.5" y="533.5" width="41" height="41" stroke="black"/>
<rect x="82.5" y="533.5" width="41" height="41" stroke="black"/>
<rect x="123.5" y="533.5" width="41" height="41" stroke="black"/>
<rect x="164.5" y="533.5" width="41" height="41" stroke="black"/>
<rect x="205.5" y="533.5" width="41" height="41" stroke="black"/>
<rect x="246.5" y="533.5" width="41" height="41" stroke="black"/>
<rect x="287.5" y="533.5" width="41" height="41" stroke="black"/>
<rect x="328.5" y="533.5" width="41" height="41" stroke="black"/>
<rect x="369.5" y="533.5" width="41" height="41" stroke="black"/>
<rect x="410.5" y="533.5" width="41" height="41" stroke="black"/>
<rect x="451.5" y="533.5" width="41" height="41" stroke="black"/>
<rect x="492.5" y="533.5" width="41" height="41" stroke="black"/>
<rect x="533.5" y="533.5" width="41" height="41" stroke="black"/>
</svg>
